# xmcd CD database file
#
# Track frame offsets:
#	182
#	15287
#	29982
#	42605
#	55225
#	68480
#	81772
#	96027
#	108495
#	120282
#	132572
#	145062
#	159655
#	173890
#	185570
#	197655
#	209790
#	222585
#	235425
#	248085
#	260642
#	272840
#	285010
#	297382
#	309715
#	321327
#
# Disc length: 4465 seconds
#
# Revision: 0
# Processed by: cddbd v1.5.1PL0 Copyright (c) Steve Scherf et al.
# Submitted via: CDex 1.51
#
DISCID=95116f1a
DTITLE=Campbell - King - Moore, Morris - Thomas - Texas Blues (1927-1937)
DYEAR=1900
DGENRE=Blues
TTITLE0=Gene Campbell - Mama, You Don't Mean No Good No How
TTITLE1=Gene Campbell - Bended Knee Blues
TTITLE2=Gene Campbell - Wandering Blues
TTITLE3=Gene Campbell - Robbin' and Stealin' Blues
TTITLE4=Gene Campbell - I Wish I Could Die
TTITLE5=Gene Campbell - Lazy Woman Blues
TTITLE6=Gene Campbell - Levee Camp Man Blues
TTITLE7=Gene Campbell - Western Plain Blues
TTITLE8=Gene Campbell - Don't Leave Me Blue Blues
TTITLE9=Gene Campbell - Doggone Mean Blues
TTITLE10=Gene Campbell - Crooked Woman Blues
TTITLE11=Gene Campbell - Overalls Papa Blues
TTITLE12=Whistlin' Alex Moore - It Wouldn't Be So Hard
TTITLE13=Whistlin' Alex Moore - Blue Bloomer Blues
TTITLE14=Whistlin' Alex Moore - Come Back Baby
TTITLE15=Whistlin' Alex Moore - Bull Con Blues
TTITLE16=Whistlin' Alex Moore - Hard Hearted Woman
TTITLE17=Blind Morris - Sundown Blues
TTITLE18=Blind Morris - The Katy Blues
TTITLE19=Black Ivory King - The Flying Crow
TTITLE20=Black Ivory King - Match Box Blues
TTITLE21=Henry Thomas - John Henry
TTITLE22=Henry Thomas - Cottonfield Blues
TTITLE23=Henry Thomas - Arkansas
TTITLE24=Henry Thomas - The Fox and The Hounds
TTITLE25=Henry Thomas - Red River Blues
EXTD=
EXTT0=
EXTT1=
EXTT2=
EXTT3=
EXTT4=
EXTT5=
EXTT6=
EXTT7=
EXTT8=
EXTT9=
EXTT10=
EXTT11=
EXTT12=
EXTT13=
EXTT14=
EXTT15=
EXTT16=
EXTT17=
EXTT18=
EXTT19=
EXTT20=
EXTT21=
EXTT22=
EXTT23=
EXTT24=
EXTT25=
PLAYORDER=
